<svg width="51" height="51" viewBox="0 0 51 51" fill="none" xmlns="http://www.w3.org/2000/svg">
<path d="M47.2479 25.6793C47.2092 13.8368 37.5952 4.25024 25.7511 4.25024C13.9028 4.25024 4.29088 13.8368 4.25221 25.6793L4.25006 25.6235V25.8641L4.25221 25.8147C4.28873 37.6594 13.9006 47.2502 25.7511 47.2502C37.5974 47.2502 47.2092 37.6637 47.2479 25.8211L47.2501 25.877V25.761V25.7502V25.6235L47.2479 25.6793V25.6793ZM19.8925 35.5259C14.5022 35.5259 10.1216 31.1451 10.1216 25.7524C10.1216 20.3597 14.5022 15.9789 19.8925 15.9789C22.535 15.9789 24.7435 16.9479 26.4365 18.5313L23.6543 21.2277C22.9561 20.5638 21.7229 19.7817 19.8925 19.7817C16.6592 19.7817 14.0209 22.4695 14.0209 25.7653C14.0209 29.0589 16.6613 31.7467 19.8925 31.7467C23.635 31.7467 25.0142 29.1556 25.2677 27.6216H19.8882V23.9734H29.0296C29.1714 24.5879 29.2766 25.1637 29.2766 25.9758C29.2766 31.5555 25.5341 35.5259 19.8925 35.5259V35.5259ZM42.3603 26.7278H38.4524V30.6359H35.522V26.7278H31.6119V23.7973H35.522V19.887H38.4524V23.7973H42.3603V26.7278Z" fill="white"/>
</svg>
