<svg width="51" height="51" viewBox="0 0 51 51" fill="none" xmlns="http://www.w3.org/2000/svg">
<path d="M24.6875 3.1875C12.8145 3.1875 3.1875 12.8145 3.1875 24.6875C3.1875 36.5605 12.8145 46.1875 24.6875 46.1875C36.5605 46.1875 46.1875 36.5605 46.1875 24.6875C46.1875 12.8145 36.5605 3.1875 24.6875 3.1875ZM35.02 19.3941C35.0344 19.6196 35.0344 19.8548 35.0344 20.0852C35.0344 27.1302 29.669 35.2455 19.8644 35.2455C16.841 35.2455 14.0383 34.3673 11.6771 32.8556C12.109 32.9036 12.5218 32.9228 12.9633 32.9228C15.4588 32.9228 17.7528 32.0781 19.5813 30.648C17.2393 30.6 15.2717 29.0643 14.5998 26.9527C15.4204 27.0727 16.1595 27.0727 17.0041 26.8567C15.7982 26.6117 14.7144 25.9568 13.9366 25.0032C13.1589 24.0496 12.7353 22.8562 12.7377 21.6257V21.5585C13.4432 21.9568 14.2734 22.2016 15.1421 22.2352C14.4119 21.7485 13.813 21.0892 13.3986 20.3157C12.9842 19.5421 12.7671 18.6783 12.7665 17.8008C12.7665 16.8074 13.0257 15.9003 13.4912 15.1133C14.8297 16.761 16.4999 18.1086 18.3933 19.0685C20.2867 20.0285 22.3609 20.5792 24.4811 20.685C23.7277 17.0617 26.4344 14.1295 29.6882 14.1295C31.2239 14.1295 32.606 14.7725 33.5802 15.8092C34.7848 15.5836 35.9366 15.1325 36.9636 14.5278C36.5653 15.7612 35.7302 16.8026 34.6217 17.46C35.6967 17.3449 36.7333 17.0473 37.6931 16.6298C36.9684 17.6952 36.0614 18.6406 35.02 19.3941V19.3941Z" fill="white"/>
</svg>
