<svg width="51" height="51" viewBox="0 0 51 51" fill="none" xmlns="http://www.w3.org/2000/svg">
<path d="M25.5 4C13.6257 4 4 13.6257 4 25.5C4 37.3743 13.6257 47 25.5 47C37.3743 47 47 37.3743 47 25.5C47 13.6257 37.3743 4 25.5 4ZM33.7685 28.2569C33.7685 28.2569 35.6699 30.1337 36.138 31.0049C36.1515 31.0228 36.1582 31.0407 36.1627 31.0497C36.353 31.3699 36.3978 31.6185 36.3037 31.8044C36.147 32.1135 35.6095 32.2658 35.4258 32.2792H32.0665C31.8335 32.2792 31.3453 32.2187 30.7541 31.8111C30.2994 31.4931 29.8515 30.9713 29.4148 30.4629C28.7631 29.7059 28.1987 29.052 27.6298 29.052C27.5576 29.0519 27.4858 29.0632 27.4171 29.0856C26.9871 29.2244 26.4361 29.8381 26.4361 31.473C26.4361 31.9836 26.033 32.277 25.7486 32.277H24.21C23.6859 32.277 20.9559 32.0933 18.5371 29.5424C15.5764 26.4182 12.9113 20.1519 12.8889 20.0936C12.7209 19.6883 13.0681 19.471 13.4466 19.471H16.8395C17.2919 19.471 17.4397 19.7465 17.5428 19.9906C17.6637 20.2751 18.1071 21.406 18.835 22.6781C20.0153 24.752 20.7386 25.5941 21.3187 25.5941C21.4275 25.5928 21.5343 25.5651 21.63 25.5134C22.387 25.0924 22.2459 22.3937 22.2123 21.8338C22.2123 21.7285 22.2101 20.6267 21.8226 20.0981C21.5449 19.7152 21.0723 19.5696 20.7857 19.5158C20.9017 19.3557 21.0546 19.2259 21.2314 19.1373C21.7509 18.8776 22.6871 18.8395 23.6165 18.8395H24.1339C25.1417 18.8529 25.4015 18.9179 25.7665 19.0097C26.5056 19.1866 26.5212 19.6636 26.4563 21.2963C26.4361 21.7599 26.416 22.284 26.416 22.9021C26.416 23.0365 26.4093 23.1798 26.4093 23.3321C26.3869 24.163 26.36 25.1058 26.9468 25.4933C27.0233 25.5413 27.1117 25.5669 27.2021 25.5672C27.4059 25.5672 28.0195 25.5672 29.6813 22.7162C30.1938 21.7985 30.6391 20.845 31.0139 19.863C31.0474 19.8047 31.146 19.6256 31.2624 19.5561C31.3484 19.5123 31.4437 19.49 31.5402 19.4912H35.5289C35.9633 19.4912 36.2612 19.5561 36.3172 19.7241C36.4157 19.9906 36.2993 20.8036 34.4785 23.2694L33.6655 24.3421C32.0149 26.5056 32.0149 26.6153 33.7685 28.2569Z" fill="white"/>
</svg>
